<svg width="15" height="16" viewBox="0 0 15 16" fill="none" xmlns="http://www.w3.org/2000/svg">
<path fill-rule="evenodd" clip-rule="evenodd" d="M0.833333 0.5H3.75C4.20833 0.5 4.58333 0.875 4.58333 1.33333C4.58333 2.375 4.75 3.375 5.05833 4.30833C5.15 4.6 5.08333 4.925 4.85 5.15833L3.01667 6.99167C4.21667 9.35 6.15 11.275 8.50833 12.4833L10.3417 10.65C10.5083 10.4917 10.7167 10.4083 10.9333 10.4083C11.0167 10.4083 11.1083 10.4167 11.1917 10.45C12.125 10.7583 13.1333 10.925 14.1667 10.925C14.625 10.925 15 11.3 15 11.7583V14.6667C15 15.125 14.625 15.5 14.1667 15.5C6.34167 15.5 0 9.15833 0 1.33333C0 0.875 0.375 0.5 0.833333 0.5ZM2.95 2.16672C3 2.90838 3.125 3.63338 3.325 4.32505L2.325 5.32505C1.98333 4.32505 1.76667 3.26672 1.69167 2.16672H2.95ZM11.1667 12.1834C11.875 12.3834 12.6 12.5084 13.3334 12.5584V13.8001C12.2334 13.7251 11.175 13.5084 10.1667 13.1751L11.1667 12.1834Z" fill="black"/>
</svg>
